<?xml version="1.0" encoding="utf-8"?>
<!-- Generator: Adobe Illustrator 27.2.0, SVG Export Plug-In . SVG Version: 6.00 Build 0)  -->
<svg version="1.1" id="Capa_1" xmlns="http://www.w3.org/2000/svg" xmlns:xlink="http://www.w3.org/1999/xlink" x="0px" y="0px"
	 width="16px" height="16px" viewBox="0 0 16 16" style="enable-background:new 0 0 16 16;" xml:space="preserve">
<style type="text/css">
	.st2{fill:#DB0913;}
</style>
<g transform="translate(-1.096089862078772,0.43759419877719363) scale(0.02274989335987488)">
	<path class="st2" d="M339.43,246.69L130.34,125.99c-1.77-1.01-3.93-1.03-5.71-0.04s-2.9,2.85-2.95,4.89l-1.54,59.17
		c-0.06,2.12,1.06,4.1,2.9,5.16l209.54,120.28c0.89,0.51,1.88,0.77,2.88,0.77c0.98,0,1.97-0.25,2.85-0.75
		c1.78-1.01,2.89-2.88,2.93-4.92l1.08-58.74C342.35,249.7,341.25,247.74,339.43,246.69z"/>
	<path class="st2" d="M682.84,68.48l-274.96,159.9l-3.61-2.12c-0.21-0.16-0.41-0.33-0.65-0.47l-32.68-19.05l-0.01,0L59.17,25
		c-1.78-1.04-3.98-1.05-5.77-0.03c-1.79,1.02-2.9,2.92-2.91,4.98l-2.3,402.75c-0.01,2.11,1.13,4.07,2.98,5.09l70.76,39.1
		c0.88,0.49,1.86,0.72,2.84,0.72l159.14,94.87c0.01,0.02,0.02,0.04,0.03,0.06c0.52,0.92,1.28,1.67,2.19,2.19
		c8.98,5.06,18.97,10.69,29.17,16.47l2.29,1.37l-0.06-0.11c28.82,16.32,58.9,33.48,72.77,41.68l0,0c0,0,0.01,0.01,0.02,0.01
		c3.58,2.12,6.06,3.63,7.17,4.38c0.51,0.31,1.01,0.62,1.52,0.92c2.28,1.43,4.18,0.58,4.65,0.33l8.07-4.62l276.14-159.23l63.61-113.3
		V107.7L682.84,68.48z M218.11,296.23c-2.26-1.27-5.08-0.87-6.9,0.96c-1.83,1.83-2.22,4.65-0.96,6.9L386.1,618.34
		c-22.25-12.96-58.31-33.38-80.97-46.17l-105.51-172.6c-34.92-62.08-65.16-116.11-67.66-121.49c-0.76-2.28-2.9-3.94-5.43-3.95
		c-0.02,0-0.04,0-0.06,0c-4.29,0-5.39,3.24-5.67,5.76h-0.08c0,0.13,0,0.27,0.04,0.47c-0.05,0.64-0.06,1.21-0.06,1.64l-1.65,180.09
		l-59.28-32.76L61.98,40l332.96,194.1l0.46,161.31L218.11,296.23z M686.65,307.07l-66.46,123.11l-147.62,86.3l1.63-248.08
		l141.29-84.54l72.37,46.4L686.65,307.07z"/>
</g>
</svg>
