<?xml version="1.0" encoding="utf-8"?>
<!-- Generator: Adobe Illustrator 27.2.0, SVG Export Plug-In . SVG Version: 6.00 Build 0)  -->
<svg version="1.1" id="Capa_1" xmlns="http://www.w3.org/2000/svg" xmlns:xlink="http://www.w3.org/1999/xlink" x="0px" y="0px"
	 viewBox="0 0 300 168" style="enable-background:new 0 0 300 168;" xml:space="preserve">
<style type="text/css">
	.st0{fill:#DB0913;}
</style>
<g>
	<path class="st0" d="M150.3,165.5c-0.8,0-1.5-0.7-1.5-1.5l-0.3-106.8c0-0.8,0.7-1.5,1.5-1.5h0c0.8,0,1.5,0.7,1.5,1.5l0.3,106.8
		C151.8,164.8,151.1,165.5,150.3,165.5L150.3,165.5z"/>
	<path class="st0" d="M132.7,79.7c-0.3,0-0.5-0.1-0.8-0.2L76.5,47.7c-0.5-0.3-0.8-0.8-0.8-1.4l0.4-15.7c0-0.5,0.3-1,0.8-1.3
		c0.5-0.3,1-0.3,1.5,0l55.3,31.9c0.5,0.3,0.8,0.8,0.8,1.4l-0.3,15.5c0,0.5-0.3,1-0.8,1.3C133.2,79.7,133,79.7,132.7,79.7L132.7,79.7
		z M78.8,45.5l52.4,30.1l0.2-12.1L79.2,33.4L78.8,45.5L78.8,45.5z"/>
	<path class="st0" d="M168.8,133c-0.3,0-0.5-0.1-0.8-0.2c-0.5-0.3-0.8-0.8-0.8-1.3l0.4-64.9c0-0.5,0.3-1,0.7-1.3l37-22.1
		c0.5-0.3,1.1-0.3,1.6,0l18.9,12.1c0.4,0.3,0.7,0.8,0.7,1.3l-0.3,20.1c0,0.2-0.1,0.5-0.2,0.7l-17.4,32.2c-0.1,0.2-0.3,0.5-0.6,0.6
		l-38.6,22.6C169.3,132.9,169,133,168.8,133L168.8,133z M170.7,67.4l-0.4,61.4l35.9-21l17-31.5l0.3-18.9l-17.4-11.2L170.7,67.4
		L170.7,67.4z"/>
	<path class="st0" d="M150.3,165.5c-0.3,0-0.5-0.1-0.8-0.2c-0.5-0.3-0.8-0.8-0.8-1.3l-0.3-106.8c0-0.5,0.3-1.1,0.8-1.3L223,12.9
		c0.5-0.3,1.1-0.3,1.5,0l18,10.3c0.5,0.3,0.8,0.8,0.8,1.3v66.7c0,0.3-0.1,0.5-0.2,0.7l-16.6,29.6c-0.1,0.2-0.3,0.4-0.6,0.6
		L151,165.3C150.8,165.4,150.5,165.5,150.3,165.5L150.3,165.5z M151.5,58l0.3,103.3l72.2-41.6l16.2-28.9V25.4L223.8,16L151.5,58
		L151.5,58z"/>
	<path class="st0" d="M150.3,165.5c-0.4,0-0.8-0.2-1.1-0.5c-1.9-1.3-18.5-10.7-29.5-16.9c-0.2-0.1-0.4-0.3-0.6-0.6
		c-25.4-44.9-35.9-63.6-40.2-71.5c-0.1,13.3-0.4,44.5-0.4,44.8c0,0.5-0.3,1-0.8,1.3c-0.5,0.3-1,0.3-1.5,0l-18.7-10.3
		c-0.5-0.3-0.8-0.8-0.8-1.3L57.3,4c0-0.5,0.3-1,0.8-1.3c0.5-0.3,1.1-0.3,1.5,0l91.1,53.1c0.5,0.3,0.8,0.8,0.8,1.3l0.1,46.2
		c0,0.5-0.3,1-0.8,1.3c-0.5,0.3-1,0.3-1.5,0l-44.5-24.9l46.6,83.3c0.3,0.3,0.4,0.7,0.3,1.2C151.6,165,151,165.5,150.3,165.5
		C150.3,165.5,150.3,165.5,150.3,165.5L150.3,165.5z M121.5,145.7c1.6,0.9,8.1,4.6,14.6,8.3c4.2,2.4,7.5,4.3,10,5.7L99.6,76.5
		c-0.3-0.6-0.2-1.3,0.3-1.8c0.5-0.5,1.2-0.6,1.8-0.3l46.9,26.2L148.4,58L60.4,6.7l-0.6,103l15.7,8.7l0.4-47.6c0-0.1,0-0.3,0-0.4
		c0-0.1,0-0.1,0-0.1h0c0.1-0.7,0.4-1.5,1.5-1.5c0.7,0,1.2,0.4,1.4,1C80.2,72.5,109.8,125,121.5,145.7L121.5,145.7z M79,70.2L79,70.2
		L79,70.2z M79,70.1L79,70.1L79,70.1z"/>
</g>
</svg>
