<?xml version="1.0" encoding="utf-8"?>
<!-- Generator: Adobe Illustrator 27.2.0, SVG Export Plug-In . SVG Version: 6.00 Build 0)  -->
<svg version="1.1" id="Capa_1" xmlns="http://www.w3.org/2000/svg" xmlns:xlink="http://www.w3.org/1999/xlink" x="0px" y="0px"
	 viewBox="0 0 799.66 664.47" style="enable-background:new 0 0 799.66 664.47;" xml:space="preserve">
<style type="text/css">
	.st0{fill:#DB0D17;}
	.st1{fill:none;stroke:#DB0D17;stroke-width:4;stroke-linecap:round;stroke-linejoin:round;stroke-miterlimit:10;}
	.st2{fill:#DB0913;}
</style>
<g>
	<g>
		<path class="st0" d="M-3828.05,589.62c-1.1,0-2-0.89-2-1.99l-0.4-139.89c0-1.1,0.89-2,1.99-2.01c0,0,0,0,0.01,0
			c1.1,0,2,0.89,2,1.99l0.4,139.89C-3826.04,588.72-3826.94,589.62-3828.05,589.62C-3828.04,589.62-3828.04,589.62-3828.05,589.62z"
			/>
	</g>
	<g>
		<path class="st0" d="M-3851.04,477.32c-0.34,0-0.69-0.09-1-0.27l-72.58-41.66c-0.64-0.37-1.02-1.05-1-1.79l0.53-20.49
			c0.02-0.71,0.41-1.35,1.02-1.69c0.61-0.34,1.37-0.34,1.98,0.01l72.42,41.81c0.63,0.36,1.01,1.04,1,1.77l-0.37,20.34
			c-0.01,0.71-0.4,1.35-1.01,1.7C-3850.36,477.23-3850.7,477.32-3851.04,477.32z M-3921.59,432.52l68.61,39.38l0.29-15.78
			l-68.48-39.54L-3921.59,432.52z"/>
	</g>
	<g>
		<path class="st0" d="M-3803.82,547.01c-0.35,0-0.69-0.09-1-0.27c-0.62-0.36-1-1.03-1-1.74l0.56-85c0-0.7,0.37-1.34,0.97-1.7
			l48.41-28.97c0.65-0.39,1.47-0.38,2.11,0.03l24.8,15.9c0.58,0.37,0.93,1.02,0.92,1.72l-0.42,26.32c0,0.32-0.09,0.64-0.24,0.92
			l-22.77,42.18c-0.17,0.32-0.43,0.59-0.75,0.78l-50.58,29.57C-3803.13,546.92-3803.48,547.01-3803.82,547.01z M-3801.27,461.15
			l-0.53,80.36l47.06-27.51l22.27-41.26l0.39-24.72l-22.81-14.63L-3801.27,461.15z"/>
	</g>
	<g>
		<path class="st0" d="M-3828.05,589.62c-0.34,0-0.69-0.09-1-0.27c-0.62-0.36-1-1.01-1-1.73l-0.4-139.89c0-0.71,0.38-1.38,0.99-1.73
			l96.66-56.21c0.62-0.36,1.38-0.36,2-0.01l23.52,13.44c0.62,0.36,1.01,1.02,1.01,1.74v87.35c0,0.34-0.09,0.68-0.26,0.98
			l-21.79,38.82c-0.18,0.31-0.43,0.57-0.75,0.75l-97.99,56.5C-3827.36,589.54-3827.7,589.62-3828.05,589.62z M-3826.44,448.88
			l0.39,135.29l94.52-54.5l21.27-37.89v-85.66l-21.51-12.29L-3826.44,448.88z"/>
	</g>
	<g>
		<path class="st0" d="M-3828.05,589.62c-0.55,0-1.07-0.23-1.45-0.62c-2.45-1.67-24.24-14.04-38.64-22.15
			c-0.32-0.18-0.58-0.44-0.76-0.76c-33.29-58.85-46.98-83.29-52.61-93.58c-0.16,17.41-0.53,58.21-0.54,58.73
			c-0.01,0.7-0.38,1.35-0.99,1.71c-0.61,0.36-1.36,0.36-1.98,0.02l-24.51-13.54c-0.64-0.35-1.04-1.03-1.03-1.76l0.8-139.49
			c0-0.71,0.39-1.37,1.01-1.73c0.62-0.36,1.38-0.35,2,0.01l119.3,69.54c0.61,0.36,0.99,1.01,0.99,1.72l0.17,60.44
			c0,0.71-0.37,1.37-0.99,1.73c-0.61,0.36-1.37,0.37-1.99,0.02l-58.21-32.56l61.04,109.08c0.37,0.45,0.49,0.94,0.34,1.63
			c-0.2,0.86-0.95,1.5-1.83,1.56C-3827.96,589.62-3828,589.62-3828.05,589.62z M-3865.68,563.64c2.09,1.18,10.61,5.98,19.12,10.82
			c5.45,3.1,9.84,5.62,13.05,7.49l-60.9-108.83c-0.44-0.78-0.3-1.76,0.33-2.39c0.63-0.63,1.61-0.77,2.39-0.33l61.4,34.35
			l-0.16-55.87l-115.32-67.23l-0.77,134.85l20.53,11.34l0.57-62.37c0-0.15,0-0.35,0.02-0.57c-0.01-0.07-0.01-0.12-0.01-0.16h0.03
			c0.1-0.88,0.48-1.97,1.99-2c0.88,0.01,1.62,0.58,1.88,1.37C-3919.82,467.78-3880.98,536.6-3865.68,563.64z M-3921.42,464.76
			C-3921.42,464.76-3921.42,464.76-3921.42,464.76C-3921.42,464.76-3921.42,464.76-3921.42,464.76z M-3921.42,464.75
			C-3921.42,464.75-3921.42,464.76-3921.42,464.75C-3921.42,464.76-3921.42,464.75-3921.42,464.75z"/>
	</g>
</g>
<g>
	<line class="st1" x1="-4527.67" y1="420.05" x2="-4527.27" y2="559.95"/>
	<polygon class="st1" points="-4622.31,385.49 -4622.85,405.98 -4550.27,447.64 -4549.9,427.3 	"/>
	<polygon class="st1" points="-4502.49,432.34 -4454.08,403.37 -4429.29,419.27 -4429.7,445.59 -4452.47,487.77 -4503.05,517.33 	
		"/>
	<polygon class="st1" points="-4527.27,559.95 -4429.29,503.45 -4407.49,464.62 -4407.49,377.28 -4431.01,363.84 -4527.67,420.05 	
		"/>
	<path class="st1" d="M-4527.27,559.95l-64.62-115.48l64.39,36.02l-0.17-60.44l-119.3-69.55l-0.8,139.49l24.51,13.54
		c0,0,0.62-67.32,0.61-66.47s56.28,100.36,56.28,100.36S-4526.48,559.9-4527.27,559.95z"/>
</g>
<g>
	<path class="st2" d="M339.43,246.69L130.34,125.99c-1.77-1.01-3.93-1.03-5.71-0.04s-2.9,2.85-2.95,4.89l-1.54,59.17
		c-0.06,2.12,1.06,4.1,2.9,5.16l209.54,120.28c0.89,0.51,1.88,0.77,2.88,0.77c0.98,0,1.97-0.25,2.85-0.75
		c1.78-1.01,2.89-2.88,2.93-4.92l1.08-58.74C342.35,249.7,341.25,247.74,339.43,246.69z"/>
	<path class="st2" d="M682.84,68.48l-274.96,159.9l-3.61-2.12c-0.21-0.16-0.41-0.33-0.65-0.47l-32.68-19.05l-0.01,0L59.17,25
		c-1.78-1.04-3.98-1.05-5.77-0.03c-1.79,1.02-2.9,2.92-2.91,4.98l-2.3,402.75c-0.01,2.11,1.13,4.07,2.98,5.09l70.76,39.1
		c0.88,0.49,1.86,0.72,2.84,0.72l159.14,94.87c0.01,0.02,0.02,0.04,0.03,0.06c0.52,0.92,1.28,1.67,2.19,2.19
		c8.98,5.06,18.97,10.69,29.17,16.47l2.29,1.37l-0.06-0.11c28.82,16.32,58.9,33.48,72.77,41.68l0,0c0,0,0.01,0.01,0.02,0.01
		c3.58,2.12,6.06,3.63,7.17,4.38c0.51,0.31,1.01,0.62,1.52,0.92c2.28,1.43,4.18,0.58,4.65,0.33l8.07-4.62l276.14-159.23l63.61-113.3
		V107.7L682.84,68.48z M218.11,296.23c-2.26-1.27-5.08-0.87-6.9,0.96c-1.83,1.83-2.22,4.65-0.96,6.9L386.1,618.34
		c-22.25-12.96-58.31-33.38-80.97-46.17l-105.51-172.6c-34.92-62.08-65.16-116.11-67.66-121.49c-0.76-2.28-2.9-3.94-5.43-3.95
		c-0.02,0-0.04,0-0.06,0c-4.29,0-5.39,3.24-5.67,5.76h-0.08c0,0.13,0,0.27,0.04,0.47c-0.05,0.64-0.06,1.21-0.06,1.64l-1.65,180.09
		l-59.28-32.76L61.98,40l332.96,194.1l0.46,161.31L218.11,296.23z M686.65,307.07l-66.46,123.11l-147.62,86.3l1.63-248.08
		l141.29-84.54l72.37,46.4L686.65,307.07z"/>
</g>
</svg>
